<?xml version="1.0" encoding="UTF-8"?>
<svg width="64px" height="64px" viewBox="0 0 64 64" version="1.1" xmlns="http://www.w3.org/2000/svg" xmlns:xlink="http://www.w3.org/1999/xlink">
    <!-- Generator: Sketch 57 (83077) - https://sketch.com -->
    <title>safari-pinned-tab</title>
    <desc>Created with Sketch.</desc>
    <defs>
        <polygon id="path-1" points="0.471466667 0.577422222 43.8871111 0.577422222 43.8871111 14.2218667 0.471466667 14.2218667"></polygon>
        <polygon id="path-3" points="0.000266666667 0 53.6648889 0 53.6648889 31.3444444 0.000266666667 31.3444444"></polygon>
    </defs>
    <g id="safari-pinned-tab" stroke="none" stroke-width="1" fill="none" fill-rule="evenodd">
        <g id="Group-15" transform="translate(4.500000, 0.000000)">
            <path d="M15.7461333,32.6556444 L8.52568889,32.6556444 C8.69635556,38.8325333 11.2643556,44.4200889 15.3301333,48.5205333 L20.4296889,43.4218667 C17.6696889,40.6280889 15.9132444,36.8432 15.7461333,32.6556444" id="Fill-1" fill="#65B9DD"></path>
            <path d="M8.52604444,31.3444444 L15.7464889,31.3444444 C16.0913778,22.6804444 23.2442667,15.7373333 31.9918222,15.7373333 C36.0060444,15.7373333 39.6824889,17.2031111 42.5224889,19.6217778 L47.6336,14.5115556 C43.4780444,10.7906667 37.9944889,8.52488889 31.9918222,8.52488889 C19.2664889,8.52488889 8.87448889,18.7017778 8.52604444,31.3444444" id="Fill-3" fill="#1499CE"></path>
            <path d="M7.2136,32.6556444 L0.000266666667,32.6556444 C0.172711111,41.1827556 3.69537778,48.9009778 9.30604444,54.5454222 L14.4038222,49.4476444 C10.0998222,45.1098667 7.38426667,39.1943111 7.2136,32.6556444" id="Fill-5" fill="#1499CE"></path>
            <g id="Group-9" transform="translate(9.777778, 49.777778)">
                <mask id="mask-2" fill="white">
                    <use xlink:href="#path-1"></use>
                </mask>
                <g id="Clip-8"></g>
                <path d="M38.7843556,0.639644444 C34.3905778,4.59697778 28.5790222,7.00942222 22.2136889,7.00942222 C15.8154667,7.00942222 9.97546667,4.57208889 5.5728,0.577422222 L0.471466667,5.67875556 C6.18435556,10.9774222 13.8261333,14.2218667 22.2136889,14.2218667 C30.5674667,14.2218667 38.1825778,11.0032 43.8874667,5.74275556 L38.7843556,0.639644444 Z" id="Fill-7" fill="#1182A5" mask="url(#mask-2)"></path>
            </g>
            <g id="Group-12">
                <mask id="mask-4" fill="white">
                    <use xlink:href="#path-3"></use>
                </mask>
                <g id="Clip-11"></g>
                <path d="M7.2136,31.3444444 C7.56293333,17.9782222 18.5433778,7.21288889 31.9913778,7.21288889 C38.3567111,7.21288889 44.1682667,9.62533333 48.5620444,13.5826667 L53.6651556,8.47955556 C47.9602667,3.21911111 40.3451556,-0.000444444444 31.9913778,-0.000444444444 C14.5656,-0.000444444444 0.350488889,14.0004444 0.000266666667,31.3444444 L7.2136,31.3444444 Z" id="Fill-10" fill="#65B9DD" mask="url(#mask-4)"></path>
            </g>
            <path d="M47.6332444,49.4889778 L42.5221333,44.3778667 C39.6821333,46.7974222 36.0056889,48.2623111 31.9914667,48.2623111 C27.9434667,48.2623111 24.2394667,46.7716444 21.3896889,44.3156444 L16.2794667,49.4267556 C20.4430222,53.1840889 25.9541333,55.4756444 31.9914667,55.4756444 C37.9950222,55.4756444 43.4776889,53.2098667 47.6332444,49.4889778" id="Fill-13" fill="#1499CE"></path>
        </g>
    </g>
</svg>